{
  "accessors": [
    {
      "bufferView": 2,
      "componentType": 5126,
      "count": 607,
      "max": [
        12.331301689147949,
        7.7024660110473633,
        2.8911876678466797
      ],
      "min": [
        -15.105320930480957,
        -7.7020716667175293,
        -2.2475724220275879
      ],
      "type": "VEC3"
    },
    {
      "bufferView": 2,
      "byteOffset": 7284,
      "componentType": 5126,
      "count": 607,
      "max": [
        0.99198418855667114,
        0.99997234344482422,
        0.99996507167816162
      ],
      "min": [
        -0.97738945484161377,
        -0.99999690055847168,
        -0.99999213218688965
      ],
      "type": "VEC3"
    },
    {
      "bufferView": 3,
      "componentType": 5126,
      "count": 607,
      "max": [
        0.99987208843231201,
        0.62835073471069336,
        0.99906772375106812,
        1
      ],
      "min": [
        -0.99998342990875244,
        -0.62153881788253784,
        -0.99623167514801025,
        1
      ],
      "type": "VEC4"
    },
    {
      "bufferView": 1,
      "componentType": 5126,
      "count": 607,
      "max": [
        0.93697816133499146,
        0.98799681663513184
      ],
      "min": [
        0.0051043499261140823,
        0.01423079427331686
      ],
      "type": "VEC2"
    },
    {
      "bufferView": 0,
      "componentType": 5125,
      "count": 1446,
      "max": [
        606
      ],
      "min": [
        0
      ],
      "type": "SCALAR"
    }
  ],
  "asset": {
    "extras": {
      "author": "✿Maksie✿ (https://sketchfab.com/maks_)",
      "license": "CC-BY-4.0 (http://creativecommons.org/licenses/by/4.0/)",
      "source": "https://sketchfab.com/3d-models/handpainted-wooden-sign-8ef7a444957f43888ef437259d4e5572",
      "title": "Handpainted Wooden Sign"
    },
    "generator": "Sketchfab-7.7.0",
    "version": "2.0"
  },
  "bufferViews": [
    {
      "buffer": 0,
      "byteLength": 5784,
      "byteOffset": 0,
      "name": "floatBufferViews",
      "target": 34963
    },
    {
      "buffer": 0,
      "byteLength": 4856,
      "byteOffset": 5784,
      "byteStride": 8,
      "name": "floatBufferViews",
      "target": 34962
    },
    {
      "buffer": 0,
      "byteLength": 14568,
      "byteOffset": 10640,
      "byteStride": 12,
      "name": "floatBufferViews",
      "target": 34962
    },
    {
      "buffer": 0,
      "byteLength": 9712,
      "byteOffset": 25208,
      "byteStride": 16,
      "name": "floatBufferViews",
      "target": 34962
    }
  ],
  "buffers": [
    {
      "byteLength": 34920,
      "uri": "scene.bin"
    }
  ],
  "extensionsUsed": [
    "KHR_materials_unlit"
  ],
  "images": [
    {
      "uri": "textures/lambert1_baseColor.png"
    }
  ],
  "materials": [
    {
      "doubleSided": true,
      "emissiveFactor": [
        1,
        1,
        1
      ],
      "emissiveTexture": {
        "index": 0,
        "texCoord": 0
      },
      "extensions": {
        "KHR_materials_unlit": {}
      },
      "name": "lambert1",
      "pbrMetallicRoughness": {
        "baseColorFactor": [
          1,
          1,
          1,
          1
        ],
        "baseColorTexture": {
          "index": 0,
          "texCoord": 0
        },
        "metallicFactor": 0,
        "roughnessFactor": 1
      }
    }
  ],
  "meshes": [
    {
      "name": "pCube9_lambert1_0",
      "primitives": [
        {
          "attributes": {
            "NORMAL": 1,
            "POSITION": 0,
            "TANGENT": 2,
            "TEXCOORD_0": 3
          },
          "indices": 4,
          "material": 0,
          "mode": 4
        }
      ]
    }
  ],
  "nodes": [
    {
      "children": [
        1
      ],
      "name": "RootNode (gltf orientation matrix)",
      "rotation": [
        -0.70710678118654746,
        -0,
        -0,
        0.70710678118654757
      ]
    },
    {
      "children": [
        2
      ],
      "name": "RootNode (model correction matrix)"
    },
    {
      "children": [
        3
      ],
      "matrix": [
        1,
        0,
        0,
        0,
        0,
        0,
        1,
        0,
        0,
        -1,
        0,
        0,
        0,
        0,
        0,
        1
      ],
      "name": "m_woodenSign.fbx"
    },
    {
      "children": [
        4
      ],
      "name": "RootNode"
    },
    {
      "children": [
        5
      ],
      "name": "pCube9"
    },
    {
      "mesh": 0,
      "name": "pCube9_lambert1_0"
    }
  ],
  "samplers": [
    {
      "magFilter": 9729,
      "minFilter": 9987,
      "wrapS": 10497,
      "wrapT": 10497
    }
  ],
  "scene": 0,
  "scenes": [
    {
      "name": "OSG_Scene",
      "nodes": [
        0
      ]
    }
  ],
  "textures": [
    {
      "sampler": 0,
      "source": 0
    }
  ]
}

